<svg xmlns="http://www.w3.org/2000/svg" id="&#x421;&#x43B;&#x43E;&#x439;_1" data-name="&#x421;&#x43B;&#x43E;&#x439; 1" viewBox="0 0 600 600"><defs><style>.cls-1{fill:#1d1d1b;}.cls-2,.cls-3,.cls-4,.cls-5,.cls-6{fill:none;stroke-miterlimit:10;}.cls-2,.cls-3,.cls-4,.cls-5{stroke:#1d1d1b;}.cls-2{stroke-width:5.54px;}.cls-3{stroke-width:3.71px;}.cls-4{stroke-width:1.87px;}.cls-5,.cls-6{stroke-width:3.33px;}.cls-6{stroke:#000;}</style></defs><title>Crimea-icons</title><path class="cls-1" d="M291.83,61.2s26.65-18.45,44.41,0c15.72-12.3,49.2,0,49.2,0L382,67.35s-26.42-4.78-31,0-24.36,4.1-24.36,4.1.86-13.63-22.55-2.74C299.71,70.77,291.83,61.2,291.83,61.2Z"></path><path class="cls-2" d="M313.26,297.2l-39.89,13.92s9.48,14.78,10.13,20.25-11.42,24.45-14.12,21.6-18.11,18.71-17,23.49-5.08,21.18-5.08,21.18-12.7,1.37-13.18,5.46-9.12-3.41-9.93,4.79-17.12,33.65-13.41,39,12,5.38,7.19,16.31-14,12.3-21.39,17.76-24.65,6.15-22.83,13-9.85,24.6-7.1,28.7-19.19,17.08-7.87,24.6,24.12,20.49,41.29,18.44,49.4-.25,59.25.22,92.51-5.25,104.81,0,21.18,11.4,35.53,11.4,6.83-6.15,27.33-4.78,48.51,17.08,61.49,4.78,5.46-63.54,5.46-63.54-28-13-45.77-20.5-4.78-40.61-4.78-43.88S450.17,424,450.17,424s10.25-12-15.72-13.33S403,401.74,403,401.74l6.84-26.65c-6.15-10.8-14.35-8.38-20.5-10s-4.78-29.55-4.78-29.55l-5.75-15.8L365.39,297.2Z"></path><rect class="cls-1" x="312.04" y="97.44" width="53.19" height="4.78"></rect><polygon class="cls-3" points="353.9 90.7 323.38 90.7 329.52 78.05 338.64 78.06 347.75 78.05 353.9 90.7"></polygon><polygon class="cls-2" points="357.55 291.93 319.72 291.93 327.34 131.02 338.63 131.16 349.92 131.02 357.55 291.93"></polygon><polygon class="cls-1" points="359.71 102.28 317.55 102.28 326.05 126.19 338.63 126.16 351.22 126.19 359.71 102.28"></polygon><polygon class="cls-4" points="355.35 357.96 316.35 357.96 316.35 300.9 348.99 301.38 355.35 357.96"></polygon><polygon class="cls-1" points="280.47 357.96 316.35 357.96 323.4 296.21 308.58 299.68 280.47 357.96"></polygon><polygon class="cls-5" points="362.28 375.33 310.25 375.33 315.93 359.18 335.85 359.2 355.77 359.18 362.28 375.33"></polygon><polygon class="cls-1" points="366.86 299.68 308.58 299.68 318.15 288.91 337.24 288.92 356.33 288.91 366.86 299.68"></polygon><polygon class="cls-5" points="355.35 357.96 380.12 357.96 363.92 300.9 348.44 300.82 355.35 357.96"></polygon><polygon class="cls-1" points="220.24 404.98 209.03 431.19 220.24 459.2 237.07 432.09 220.24 404.98"></polygon><polygon class="cls-1" points="181.13 497.77 164.54 550.29 186.53 552.62 207.31 541.92 188.1 525.65 181.13 497.77"></polygon><polyline class="cls-5" points="310.25 375.33 265.43 375.33 280.47 357.96 315.93 359.18"></polyline><polyline class="cls-6" points="237 432.22 280.25 469.92 339.01 438.87 380.04 454.39 353.43 486.55 385.58 506.51 425.5 506.51 447.68 490.98"></polyline><polyline class="cls-6" points="173.25 491.54 223.14 507.06 237.56 524.8 280.8 535.89 326.26 521.48 385.03 524.8 423.84 535.89 495.91 513.71"></polyline><polygon class="cls-1" points="207.06 490.98 237 458.83 265.83 474.35 237 506.51 207.06 490.98"></polygon><polyline class="cls-1" points="197.09 513.16 222.59 535.34 237 525.36 209.03 506.54"></polyline><polygon class="cls-1" points="272.24 394.52 243.66 412.79 248.97 429.24 286.9 394.52 272.24 394.52"></polygon><polyline class="cls-5" points="361.74 375.11 397.23 375.11 380.59 358.48"></polyline></svg>